<svg xmlns="http://www.w3.org/2000/svg" version="1.1" xmlns:xlink="http://www.w3.org/1999/xlink" width="512" height="512" x="0" y="0" viewBox="0 0 24 24" style="enable-background:new 0 0 512 512" xml:space="preserve" class=""><g><path fill="#2196f3" d="M12 24C5.383 24 0 18.617 0 12S5.383 0 12 0s12 5.383 12 12-5.383 12-12 12z" opacity="1" data-original="#2196f3"></path><path fill="#fafafa" d="M19.356 8.059a1.254 1.254 0 0 0-1.269.033L16 9.396V9.25C16 8.009 14.99 7 13.75 7h-7.5A2.253 2.253 0 0 0 4 9.25v5.5C4 15.991 5.01 17 6.25 17h7.5c1.24 0 2.25-1.009 2.25-2.25v-.146l2.088 1.305A1.253 1.253 0 0 0 20 14.848V9.152a1.25 1.25 0 0 0-.644-1.093z" opacity="1" data-original="#fafafa"></path><path fill="#1d83d4" d="M24 12h-4v2.848a1.253 1.253 0 0 1-1.25 1.25c-.229 0-.46-.063-.662-.189L16 14.604v.146c0 1.241-1.01 2.25-2.25 2.25h-7.5A2.253 2.253 0 0 1 4 14.75V12H0c0 6.617 5.383 12 12 12s12-5.383 12-12z" opacity="1" data-original="#1d83d4" class=""></path><path fill="#dadada" d="M20 12H4v2.75C4 15.991 5.01 17 6.25 17h7.5c1.24 0 2.25-1.009 2.25-2.25v-.146l2.088 1.305A1.253 1.253 0 0 0 20 14.848z" opacity="1" data-original="#dadada"></path></g></svg>