<svg xmlns="http://www.w3.org/2000/svg" version="1.1" xmlns:xlink="http://www.w3.org/1999/xlink" width="512" height="512" x="0" y="0" viewBox="0 0 512 512" style="enable-background:new 0 0 512 512" xml:space="preserve" class=""><g><path d="M466 80H46c-25.364 0-46 20.636-46 46v260c0 25.364 20.636 46 46 46h420c25.364 0 46-20.636 46-46V126c0-25.364-20.636-46-46-46zM160 220c0 19.851-16.149 36-36 36h-24c-19.851 0-36-16.149-36-36v-24c0-19.851 16.149-36 36-36h24c19.851 0 36 16.149 36 36zm205.699 81.71c-3.468 0-6.96-1.122-9.895-3.435-6.939-5.471-8.131-15.531-2.66-22.471C357.63 270.116 360 263.267 360 256s-2.37-14.116-6.855-19.805c-5.471-6.939-4.279-17 2.66-22.471 6.939-5.469 17-4.28 22.471 2.66C387.126 227.612 392 241.681 392 256s-4.874 28.388-13.725 39.615a15.97 15.97 0 0 1-12.576 6.095zm51.639 34.406a15.958 15.958 0 0 1-11.913 5.314c-3.807 0-7.626-1.35-10.682-4.092-6.576-5.901-7.124-16.018-1.222-22.594C408.017 298.59 416 277.728 416 256s-7.983-42.59-22.479-58.744c-5.902-6.577-5.354-16.693 1.222-22.594 6.577-5.901 16.692-5.355 22.595 1.222C437.11 197.918 448 226.371 448 256s-10.89 58.082-30.662 80.116z" fill="#ffffff" opacity="1" data-original="#000000" class=""></path></g></svg>