<svg xmlns="http://www.w3.org/2000/svg" version="1.1" xmlns:xlink="http://www.w3.org/1999/xlink" width="512" height="512" x="0" y="0" viewBox="0 0 64 64" style="enable-background:new 0 0 512 512" xml:space="preserve" class=""><g><linearGradient id="a" x1="3.25" x2="60.75" y1="32" y2="32" gradientUnits="userSpaceOnUse"><stop offset="0" stop-color="#5bb4f6"></stop><stop offset=".61" stop-color="#2191e5"></stop><stop offset="1" stop-color="#007edb"></stop></linearGradient><g data-name="Layer 10"><circle cx="32" cy="32" r="28.75" fill="url(#a)" opacity="1" data-original="url(#a)" class=""></circle><g fill="#fff"><path d="M45 26.9v-6.45a2.08 2.08 0 0 0-2.08-2.08h-2.56a.58.58 0 0 1-.55-.39l-.72-2.17a2.08 2.08 0 0 0-2-1.42H26.64a2.08 2.08 0 0 0-2 1.42L24 18a.58.58 0 0 1-.55.39h-2.63a2.08 2.08 0 0 0-2.08 2.08V27c-4.76 1.94-7.49 4.83-7.49 8 0 5.41 8 9.73 18.5 10.28l-3.91 3a.75.75 0 0 0 .46 1.34.74.74 0 0 0 .46-.16l5.58-4.29a.77.77 0 0 0 0-1.19l-5.58-4.3a.75.75 0 0 0-1.05.14.76.76 0 0 0 .13 1l3.73 2.87c-9.32-.56-16.82-4.35-16.82-8.75 0-2.36 2.22-4.69 6-6.36v6.43a2.08 2.08 0 0 0 2.08 2.08h22.11A2.08 2.08 0 0 0 45 35.05v-6.53c3.92 1.67 6.23 4 6.23 6.46 0 3.26-4.16 6.35-10.6 7.88a.75.75 0 0 0 .17 1.48h.17C48.25 42.6 52.75 39 52.75 35c0-3.24-2.81-6.16-7.75-8.1zm-2.08 8.73h-22.1a.58.58 0 0 1-.58-.58v-14.6a.58.58 0 0 1 .58-.58h2.58a2.07 2.07 0 0 0 2-1.42l.72-2.16a.58.58 0 0 1 .55-.4h10.45a.57.57 0 0 1 .54.4l.73 2.16a2.07 2.07 0 0 0 2 1.42h2.58a.58.58 0 0 1 .58.58v14.6a.58.58 0 0 1-.61.58z" fill="#ffffff" opacity="1" data-original="#ffffff"></path><path d="M31.88 19.6a7 7 0 1 0 7 7 7 7 0 0 0-7-7zm0 12.55a5.53 5.53 0 1 1 5.52-5.52 5.53 5.53 0 0 1-5.52 5.52z" fill="#ffffff" opacity="1" data-original="#ffffff"></path></g></g></g></svg>