<svg xmlns="http://www.w3.org/2000/svg" version="1.1" xmlns:xlink="http://www.w3.org/1999/xlink" width="512" height="512" x="0" y="0" viewBox="0 0 24 24" style="enable-background:new 0 0 512 512" xml:space="preserve" class=""><g><linearGradient id="a" x1="12" x2="12" y1=".192" y2="24.192" gradientUnits="userSpaceOnUse"><stop offset="0" stop-color="#4dbfff"></stop><stop offset="1" stop-color="#008ddb"></stop></linearGradient><circle cx="12" cy="12" r="12" fill="url(#a)" opacity="1" data-original="url(#a)" class=""></circle><path fill="#ffffff" d="M17.2 18.2H5.8c-.4 0-.7-.3-.7-.7V7.9c0-.4.3-.7.7-.7h.4L4.7 5.7l1-1 13.6 13.6-1 1zM9 9.9c-1.5 1.7-1.4 4.3.3 5.9 1.6 1.4 4 1.4 5.6 0l-1-1c-1.2 1-2.9.9-3.9-.3-.9-1-.9-2.5 0-3.6zm9.9 6.1-2.8-2.8c.3-2.3-1.3-4.3-3.6-4.6-.3-.1-.7-.1-1 0L9.3 6.4l.6-.6H14l1.4 1.4h2.8c.4 0 .7.3.7.7zM13 10.1c.7.3 1.2.8 1.5 1.5z" opacity="1" data-original="#ffffff" class=""></path></g></svg>